<?xml version="1.0" encoding="utf-8"?>
<!-- Generator: Adobe Illustrator 27.0.1, SVG Export Plug-In . SVG Version: 6.00 Build 0)  -->
<svg version="1.1" id="Слой_1" xmlns="http://www.w3.org/2000/svg" xmlns:xlink="http://www.w3.org/1999/xlink" x="0px" y="0px"
	 viewBox="0 0 255.4 88.37" style="enable-background:new 0 0 255.4 88.37;" xml:space="preserve">
<style type="text/css">
	.st0{fill:#C40606;stroke:#000000;stroke-width:3;stroke-miterlimit:10;}
	.st1{fill:#E26007;}
</style>
<path d="M38.4-159.9c0-1.87,0-3.32,0-4.36c0-1.03,0.04-1.8,0.11-2.3s0.18-0.85,0.32-1.04c0.14-0.19,0.33-0.36,0.58-0.5
	c0.29-0.29,0.67-0.47,1.15-0.54c0.48-0.07,1.22-0.11,2.23-0.11c0.82,0,1.43,0.01,1.84,0.04c0.41,0.02,0.72,0.08,0.94,0.18
	c0.22,0.1,0.42,0.24,0.61,0.43c0.67,0.58,1.15,1.32,1.44,2.23c0.29,0.91,0.43,2.5,0.43,4.75c0,1.34-0.05,3-0.14,4.97
	c0,3.22-0.1,5.76-0.29,7.63c-0.05,0.62-0.07,1.03-0.07,1.22c-0.1,0.19-0.14,0.34-0.14,0.43c0,0.14,0.13,0.23,0.4,0.25
	c0.26,0.02,0.76,0.04,1.48,0.04c0.86,0,2.3-0.14,4.32-0.43s3.86-0.6,5.54-0.94c0.43-0.05,0.77-0.17,1.01-0.36
	c0.24-0.19,0.42-0.58,0.54-1.15c0.12-0.58,0.22-1.54,0.29-2.88c0.07-1.34,0.16-3.19,0.25-5.54c0-2.4,0-4.26,0-5.58
	c0-1.32,0.04-2.28,0.11-2.88c0.07-0.6,0.18-1.01,0.32-1.22c0.14-0.22,0.34-0.4,0.58-0.54c0.91-0.53,1.94-0.79,3.1-0.79
	c1.01,0,1.9,0.17,2.66,0.5c0.77,0.29,1.32,0.7,1.66,1.22c0.33,0.53,0.54,1.38,0.61,2.56c0.07,1.18,0.11,2.96,0.11,5.36
	c0,2.5-0.06,5.86-0.18,10.08c-0.12,4.22-0.28,8.26-0.47,12.1c-0.19,3.84-0.41,6.58-0.65,8.21c-0.19,2.26-0.44,4.21-0.76,5.87
	c-0.31,1.66-0.64,2.75-0.97,3.28c-0.19,0.19-0.5,0.42-0.94,0.68c-0.43,0.26-0.82,0.4-1.15,0.4c-0.53,0.19-1.03,0.29-1.51,0.29
	c-1.01,0-1.85-0.55-2.52-1.66c-0.14-0.24-0.26-0.5-0.36-0.79c-0.1-0.29-0.17-0.78-0.22-1.48c-0.05-0.7-0.08-1.72-0.11-3.06
	c-0.02-1.34-0.04-3.21-0.04-5.62c0-2.16,0-3.9,0-5.22c0-1.32-0.01-2.31-0.04-2.99c-0.02-0.67-0.06-1.13-0.11-1.37
	c-0.05-0.24-0.12-0.36-0.22-0.36c-0.1,0-0.19,0.02-0.29,0.07c-1.01,0.14-2.26,0.3-3.74,0.47c-1.49,0.17-2.9,0.25-4.25,0.25
	c-0.72,0-1.37-0.02-1.94-0.07c-0.86,0-1.49,0.07-1.87,0.22c-0.38,0.14-0.65,0.53-0.79,1.15c-0.14,0.62-0.26,1.66-0.36,3.1
	c0,0.1,0,0.22,0,0.36c-0.43,5.9-1.01,10.44-1.73,13.61c-0.14,0.82-0.35,1.4-0.61,1.76c-0.26,0.36-0.73,0.68-1.4,0.97
	c-0.67,0.29-1.3,0.43-1.87,0.43c-0.91,0-1.78-0.48-2.59-1.44c-0.43-0.38-0.75-1.08-0.94-2.09c-0.19-1.01-0.29-2.78-0.29-5.33
	c0-2.64,0.07-6.43,0.22-11.38c0.19-3.89,0.36-7.86,0.5-11.92C38.33-154.78,38.4-157.84,38.4-159.9z"/>
<path d="M141.22-168.47c0.1-0.05,0.17-0.07,0.22-0.07c0.67-0.24,1.22-0.36,1.66-0.36h2.38c0.82,0,1.43,0.06,1.84,0.18
	c0.41,0.12,0.83,0.3,1.26,0.54c0.58,0.34,1,0.67,1.26,1.01c0.26,0.34,0.4,0.79,0.4,1.37c0,0.48-0.07,0.82-0.22,1.01
	c-0.14,0.19-0.38,0.41-0.72,0.65c-0.05,0.05-0.13,0.12-0.25,0.22c-0.12,0.1-0.23,0.17-0.32,0.22c-0.14,0.1-0.28,0.19-0.4,0.29
	c-0.12,0.1-0.21,0.17-0.25,0.22c-0.43,0.14-1.36,0.38-2.77,0.72c-1.42,0.34-2.94,0.65-4.57,0.94c-0.05,0-0.1,0.02-0.14,0.07
	c-0.43,0.14-0.73,0.26-0.9,0.36c-0.17,0.1-0.25,0.26-0.25,0.5c0,0.14,0.05,0.38,0.14,0.72c0,0.05,0,0.12,0,0.22
	c0,0.62-0.1,2.06-0.29,4.32c-0.05,1.1-0.12,2.26-0.22,3.46c-0.34,9.5-0.68,16.55-1.04,21.13c-0.36,4.58-0.88,8.12-1.55,10.62
	c-0.14,0.48-0.54,0.96-1.19,1.44c-0.65,0.48-1.33,0.72-2.05,0.72h-0.29c-0.58,0-1.17-0.18-1.76-0.54c-0.6-0.36-1.04-0.9-1.33-1.62
	c-0.14-0.24-0.24-1.14-0.29-2.7c-0.05-1.56-0.07-3.44-0.07-5.65c0-4.37,0.12-8.69,0.36-12.96c0-1.15,0.02-2.71,0.07-4.68
	c0.1-2.5,0.14-4.87,0.14-7.13v-1.8c0-1.78-0.03-3.04-0.07-3.78c-0.05-0.74-0.17-1.19-0.36-1.33c-0.19-0.14-0.5-0.22-0.94-0.22
	c-0.53,0-1.3-0.05-2.3-0.14c-1.01-0.1-1.96-0.19-2.84-0.29c-0.89-0.1-1.48-0.19-1.76-0.29c-1.2-0.43-2.06-0.98-2.59-1.66
	c-0.19-0.38-0.29-0.74-0.29-1.08c0-1.01,0.98-1.8,2.95-2.38c0.29-0.1,0.84-0.14,1.66-0.14c0.53,0,1.13,0.02,1.8,0.07
	c0.62,0,1.2,0,1.73,0c1.1,0,2.2-0.06,3.28-0.18c1.08-0.12,1.88-0.23,2.41-0.32c1.82-0.24,3.5-0.52,5.04-0.83
	C139.3-167.95,140.45-168.23,141.22-168.47z"/>
<g>
	<path id="XMLID_00000016788513389627693710000004446438806348570519_" class="st0" d="M112.12-163.87
		c-0.6-0.03-1.18,2.83-2.46,2.92c-0.09,0.01-0.58,0.04-0.9-0.27c-0.28-0.26-0.3-0.64-0.31-0.73c-0.15-1.42-4.7-12.1-5.7-11.82
		c-0.46,0.13,0.53,2.3-0.7,4.5c-0.86,1.54-2.52,2.6-4.22,2.84c-0.64,0.09-2.2,0.3-3.15-0.61c-0.72-0.71-0.89-1.9-0.46-4.3
		c0.97-5.36,3.43-8.31,3-8.67c-0.45-0.35-3.99,1.89-5.99,5.91c-1.48,3-0.81,4.37-2.46,9.35c-0.53,1.62-1.98,5.98-2.98,5.84
		c-1.42-0.2-0.63-9.05-1.38-9.13c-1.05-0.11-8.28,16.15-3.94,26.14c0.94,2.16,2.86,3.69,4.03,5.72c3.52,6.09,6.98,12.01,11.42,17.5
		c0.34,0.43,0.69,0.43,1.04-0.01c2.51-3.09,4.9-6.26,7.06-9.6c1.66-2.56,2.9-5.35,4.25-8.08c1.22-2.46,2.9-4.75,3.76-7.37
		C115.24-153.75,113.25-163.82,112.12-163.87z M96.39-131.87c-2.2-0.02-4.19-0.94-5.61-2.42c-1.39-1.42-2.23-3.36-2.23-5.48
		c0-4.36,3.56-7.88,7.94-7.86c4.34,0.02,7.84,3.57,7.82,7.9c-0.01,1.96-0.73,3.75-1.92,5.12
		C100.94-132.92,98.79-131.85,96.39-131.87z"/>
	<g>
		<path class="st1" d="M108.51-155.44c-0.36-0.1-0.74,1.22-2.45,2.45c-0.68,0.49-2.04,1.46-2.73,1.09c-1.68-0.9,1.68-9.12,0.27-9.82
			c-1.01-0.5-3.01,3.59-5.86,3.27c-1.54-0.17-2.67-1.56-3.27-2.32c-1.85-2.29-1.73-4.63-2.18-4.64c-1.05-0.01-1.09,12.53-3.68,12.95
			c-1.59,0.26-3.23-4.18-4.23-3.82c-1.02,0.37,0.05,5.44,0.14,5.86c0.75,3.5,1.98,6.21,2.93,7.97c1.37-3.93,5.07-6.55,9.12-6.49
			c3.71,0.05,7.09,2.33,8.6,5.81c0.65-0.86,1.52-2.17,2.25-3.88C109.13-151,109.2-155.25,108.51-155.44z"/>
	</g>
</g>
<text transform="matrix(0.9228 -0.3853 0.3853 0.9228 265.9084 -153.9103)" style="font-family:'BrittanyGolden'; font-size:72px;">Book</text>
<path d="M14.92,31.65c0-1.87,0-3.32,0-4.36c0-1.03,0.04-1.8,0.11-2.3s0.18-0.85,0.32-1.04c0.14-0.19,0.33-0.36,0.58-0.5
	c0.29-0.29,0.67-0.47,1.15-0.54c0.48-0.07,1.22-0.11,2.23-0.11c0.82,0,1.43,0.01,1.84,0.04c0.41,0.02,0.72,0.08,0.94,0.18
	c0.22,0.1,0.42,0.24,0.61,0.43c0.67,0.58,1.15,1.32,1.44,2.23c0.29,0.91,0.43,2.5,0.43,4.75c0,1.34-0.05,3-0.14,4.97
	c0,3.22-0.1,5.76-0.29,7.63c-0.05,0.62-0.07,1.03-0.07,1.22c-0.1,0.19-0.14,0.34-0.14,0.43c0,0.14,0.13,0.23,0.4,0.25
	c0.26,0.02,0.76,0.04,1.48,0.04c0.86,0,2.3-0.14,4.32-0.43s3.86-0.6,5.54-0.94c0.43-0.05,0.77-0.17,1.01-0.36
	c0.24-0.19,0.42-0.58,0.54-1.15c0.12-0.58,0.22-1.54,0.29-2.88c0.07-1.34,0.16-3.19,0.25-5.54c0-2.4,0-4.26,0-5.58
	c0-1.32,0.04-2.28,0.11-2.88c0.07-0.6,0.18-1.01,0.32-1.22c0.14-0.22,0.34-0.4,0.58-0.54c0.91-0.53,1.94-0.79,3.1-0.79
	c1.01,0,1.9,0.17,2.66,0.5c0.77,0.29,1.32,0.7,1.66,1.22c0.33,0.53,0.54,1.38,0.61,2.56c0.07,1.18,0.11,2.96,0.11,5.36
	c0,2.5-0.06,5.86-0.18,10.08c-0.12,4.22-0.28,8.26-0.47,12.1c-0.19,3.84-0.41,6.58-0.65,8.21c-0.19,2.26-0.44,4.21-0.76,5.87
	c-0.31,1.66-0.64,2.75-0.97,3.28c-0.19,0.19-0.5,0.42-0.94,0.68c-0.43,0.26-0.82,0.4-1.15,0.4c-0.53,0.19-1.03,0.29-1.51,0.29
	c-1.01,0-1.85-0.55-2.52-1.66c-0.14-0.24-0.26-0.5-0.36-0.79c-0.1-0.29-0.17-0.78-0.22-1.48c-0.05-0.7-0.08-1.72-0.11-3.06
	c-0.02-1.34-0.04-3.21-0.04-5.62c0-2.16,0-3.9,0-5.22c0-1.32-0.01-2.31-0.04-2.99c-0.02-0.67-0.06-1.13-0.11-1.37
	c-0.05-0.24-0.12-0.36-0.22-0.36c-0.1,0-0.19,0.02-0.29,0.07c-1.01,0.14-2.26,0.3-3.74,0.47c-1.49,0.17-2.9,0.25-4.25,0.25
	c-0.72,0-1.37-0.02-1.94-0.07c-0.86,0-1.49,0.07-1.87,0.22c-0.38,0.14-0.65,0.53-0.79,1.15c-0.14,0.62-0.26,1.66-0.36,3.1
	c0,0.1,0,0.22,0,0.36c-0.43,5.9-1.01,10.44-1.73,13.61c-0.14,0.82-0.35,1.4-0.61,1.76c-0.26,0.36-0.73,0.68-1.4,0.97
	c-0.67,0.29-1.3,0.43-1.87,0.43c-0.91,0-1.78-0.48-2.59-1.44c-0.43-0.38-0.75-1.08-0.94-2.09c-0.19-1.01-0.29-2.78-0.29-5.33
	c0-2.64,0.07-6.43,0.22-11.38c0.19-3.89,0.36-7.86,0.5-11.92C14.85,36.77,14.92,33.71,14.92,31.65z"/>
<path d="M117.75,23.08c0.1-0.05,0.17-0.07,0.22-0.07c0.67-0.24,1.22-0.36,1.66-0.36h2.38c0.82,0,1.43,0.06,1.84,0.18
	c0.41,0.12,0.83,0.3,1.26,0.54c0.58,0.34,1,0.67,1.26,1.01c0.26,0.34,0.4,0.79,0.4,1.37c0,0.48-0.07,0.82-0.22,1.01
	c-0.14,0.19-0.38,0.41-0.72,0.65c-0.05,0.05-0.13,0.12-0.25,0.22c-0.12,0.1-0.23,0.17-0.32,0.22c-0.14,0.1-0.28,0.19-0.4,0.29
	c-0.12,0.1-0.21,0.17-0.25,0.22c-0.43,0.14-1.36,0.38-2.77,0.72c-1.42,0.34-2.94,0.65-4.57,0.94c-0.05,0-0.1,0.02-0.14,0.07
	c-0.43,0.14-0.73,0.26-0.9,0.36c-0.17,0.1-0.25,0.26-0.25,0.5c0,0.14,0.05,0.38,0.14,0.72c0,0.05,0,0.12,0,0.22
	c0,0.62-0.1,2.06-0.29,4.32c-0.05,1.1-0.12,2.26-0.22,3.46c-0.34,9.5-0.68,16.55-1.04,21.13c-0.36,4.58-0.88,8.12-1.55,10.62
	c-0.14,0.48-0.54,0.96-1.19,1.44c-0.65,0.48-1.33,0.72-2.05,0.72h-0.29c-0.58,0-1.17-0.18-1.76-0.54c-0.6-0.36-1.04-0.9-1.33-1.62
	c-0.14-0.24-0.24-1.14-0.29-2.7c-0.05-1.56-0.07-3.44-0.07-5.65c0-4.37,0.12-8.69,0.36-12.96c0-1.15,0.02-2.71,0.07-4.68
	c0.1-2.5,0.14-4.87,0.14-7.13v-1.8c0-1.78-0.03-3.04-0.07-3.78c-0.05-0.74-0.17-1.19-0.36-1.33c-0.19-0.14-0.5-0.22-0.94-0.22
	c-0.53,0-1.3-0.05-2.3-0.14c-1.01-0.1-1.96-0.19-2.84-0.29c-0.89-0.1-1.48-0.19-1.76-0.29c-1.2-0.43-2.06-0.98-2.59-1.66
	c-0.19-0.38-0.29-0.74-0.29-1.08c0-1.01,0.98-1.8,2.95-2.38c0.29-0.1,0.84-0.14,1.66-0.14c0.53,0,1.13,0.02,1.8,0.07
	c0.62,0,1.2,0,1.73,0c1.1,0,2.2-0.06,3.28-0.18c1.08-0.12,1.88-0.23,2.41-0.32c1.82-0.24,3.5-0.52,5.04-0.83
	C115.83,23.6,116.98,23.32,117.75,23.08z"/>
<g>
	<path id="XMLID_00000157304726685935296110000005534065572318879649_" class="st0" d="M88.65,27.68c-0.6-0.03-1.18,2.83-2.46,2.92
		c-0.09,0.01-0.58,0.04-0.9-0.27c-0.28-0.26-0.3-0.64-0.31-0.73c-0.15-1.42-4.7-12.1-5.7-11.82c-0.46,0.13,0.53,2.3-0.7,4.5
		c-0.86,1.54-2.52,2.6-4.22,2.84c-0.64,0.09-2.2,0.3-3.15-0.61c-0.72-0.71-0.89-1.9-0.46-4.3c0.97-5.36,3.43-8.31,3-8.67
		c-0.45-0.35-3.99,1.89-5.99,5.91c-1.48,3-0.81,4.37-2.46,9.35c-0.53,1.62-1.98,5.98-2.98,5.84c-1.42-0.2-0.63-9.05-1.38-9.13
		C59.89,23.4,52.66,39.66,57,49.65c0.94,2.16,2.86,3.69,4.03,5.72c3.52,6.09,6.98,12.01,11.42,17.5c0.34,0.43,0.69,0.43,1.04-0.01
		c2.51-3.09,4.9-6.26,7.06-9.6c1.66-2.56,2.9-5.35,4.25-8.08c1.22-2.46,2.9-4.75,3.76-7.37C91.77,37.8,89.78,27.73,88.65,27.68z
		 M72.92,59.68c-2.2-0.02-4.19-0.94-5.61-2.42c-1.39-1.42-2.23-3.36-2.23-5.48c0-4.36,3.56-7.88,7.94-7.86
		c4.34,0.02,7.84,3.57,7.82,7.9c-0.01,1.96-0.73,3.75-1.92,5.12C77.47,58.63,75.32,59.7,72.92,59.68z"/>
	<g>
		<path class="st1" d="M85.04,36.11c-0.36-0.1-0.74,1.22-2.45,2.45c-0.68,0.49-2.04,1.46-2.73,1.09c-1.68-0.9,1.68-9.12,0.27-9.82
			c-1.01-0.5-3.01,3.59-5.86,3.27c-1.54-0.17-2.67-1.56-3.27-2.32c-1.85-2.29-1.73-4.63-2.18-4.64c-1.05-0.01-1.09,12.53-3.68,12.95
			c-1.59,0.26-3.23-4.18-4.23-3.82c-1.02,0.37,0.05,5.44,0.14,5.86c0.75,3.5,1.98,6.21,2.93,7.97c1.37-3.93,5.07-6.55,9.12-6.49
			c3.71,0.05,7.09,2.33,8.6,5.81c0.65-0.86,1.52-2.17,2.25-3.88C85.65,40.55,85.73,36.3,85.04,36.11z"/>
	</g>
</g>
<g>
	<path d="M128.05,78.5c-0.84-1.02-1.3-2.18-1.3-3.45c0-0.42,0.07-0.88,0.18-1.34c0.88-3.55,2.71-6.47,5.55-8.72
		c0.14-0.07,0.32-0.14,0.53-0.14c0.18,0,0.46,0.11,0.77,0.25c0.35,0.18,0.7,0.39,0.98,0.7c0.32,0.32,0.46,0.6,0.46,0.84
		c0,0.74-0.67,2.14-2.04,4.18c-0.53,0.91-1.02,1.9-1.55,2.92c-0.53,0.98-0.77,1.97-0.77,2.92c0,0.53,0.04,0.77,0.14,0.77
		c0,0.46,0.14,0.77,0.46,0.95l0.07,0.11c0.95,0.32,1.9,0.46,2.92,0.46c1.97,0,4.25-0.56,6.93-1.69c6.15-2.53,11.71-6.01,16.7-10.34
		c1.93-1.58,3.73-3.34,5.41-5.27c2.21-2.57,3.3-5.31,3.3-8.23c0-0.53-0.25-1.05-0.7-1.58c-0.74-0.18-1.55-0.28-2.46-0.28l-1.3,0.11
		c-5.38,0.53-10.62,2.39-15.71,5.59v0.07h-0.11c-0.46,2.71-0.7,5.45-0.7,8.23c0,1.37,0.07,2.74,0.18,4.15l0.04,0.18
		c0,0.49-0.32,0.74-0.88,0.74c-0.32,0-0.67-0.07-1.12-0.25c-1.41-0.53-2.11-1.34-2.11-2.43c-0.14-1.51-0.18-3.02-0.18-4.5
		c0-6.93,1.65-14.94,4.96-24.05l1.9-5.38c0.46-2,1.16-3.02,2.18-3.02l0.81,0.14c1.23,0.53,1.83,1.34,1.83,2.39
		c0,1.3-0.53,2.99-1.58,5.1c-1.16,3.38-2.25,6.75-3.3,10.2l-0.7,2.32c9.28-5.45,15.86-11.29,19.76-17.47c2-2.95,2.99-5.84,2.99-8.68
		c0-0.74-0.14-1.41-0.46-1.93c0-0.07-0.04-0.14-0.07-0.18c-0.07-0.07-0.11-0.14-0.14-0.18l-0.04-0.11l-0.35-0.25
		c-0.95-0.53-2.53-0.81-4.78-0.81c-7.1,0.18-14.1,2.11-20.99,5.84c-1.79,1.12-3.8,2.74-5.98,4.89c-1.93,1.86-2.88,3.3-2.88,4.29
		c0,0.46,0.25,0.84,0.77,1.12c0.49,0.28,0.77,0.67,0.77,1.2c-0.04,0.14-0.14,0.21-0.28,0.21l-0.42-0.11
		c-2.14-0.74-3.23-1.79-3.23-3.2c0-0.07,0.04-0.49,0.11-1.3c0.04-0.77,0.7-1.97,1.9-3.52c3.73-4.78,8.58-8.16,14.55-10.2
		c4.46-1.69,9.11-2.53,13.85-2.53c2.71,0,5.13,0.56,7.24,1.65c3.09,1.62,4.61,4.18,4.61,7.73c0,1.93-0.63,4.18-1.93,6.64
		c-2.46,4.82-6.71,9.49-12.73,14.03l1.02-0.04c2.25,0,4.43,0.53,6.57,1.62s3.23,3.09,3.3,6.08c-0.28,4.15-2.74,8.23-7.31,12.27
		c-4.82,4.46-10.2,8.16-16.1,11.04c-4.11,2.07-7.73,3.09-10.86,3.09C133.07,82.37,130.19,81.06,128.05,78.5z"/>
	<path d="M184.05,65.1c-1.93,0-3.69-0.81-5.2-2.36c-2.64-2.67-3.94-5.66-3.94-9.04c0-2.46,0.84-4.75,2.5-6.89
		c0.04-1.69,0.63-3.27,1.79-4.71c1.12-1.44,2.53-2.18,4.22-2.18c1.79,0.18,3.34,0.95,4.61,2.32c1.93,2.07,2.92,4.85,2.92,8.33
		c0,0.7-0.04,1.44-0.14,2.14c2.78-0.77,4.82-1.16,6.08-1.23c0.39,0,0.88,0.32,1.55,0.88c0.25,0.25,0.39,0.49,0.39,0.77
		c0,0.14-0.11,0.21-0.35,0.28c-1.51,0.18-3.06,0.49-4.71,0.95c-1.16,0.35-2.32,0.63-3.48,0.88c-0.18,0.84-0.42,1.72-0.74,2.6
		c-1.41,4.39-3.16,6.79-5.27,7.24H184.05z M183.07,61.69c2.32-1.09,3.87-3.16,4.68-6.19c-3.2,0-6.08-1.51-8.68-4.54
		c-0.32,1.05-0.46,2.11-0.46,3.16c0,1.65,0.35,3.38,1.05,5.1s1.62,2.57,2.67,2.57L183.07,61.69z M188.66,50.02
		c0-1.16-0.14-2.39-0.42-3.69c-0.63-2.95-1.76-4.43-3.45-4.43l-0.53,0.04c-2.07,0.63-3.13,2.32-3.13,4.99
		c0,2.36,0.95,4.04,2.85,5.03c1.34,0.67,2.81,1.02,4.39,1.02C188.55,51.92,188.66,50.94,188.66,50.02z"/>
	<path d="M205.78,65.1c-1.93,0-3.69-0.81-5.2-2.36c-2.64-2.67-3.94-5.66-3.94-9.04c0-2.46,0.84-4.75,2.5-6.89
		c0.04-1.69,0.63-3.27,1.79-4.71c1.12-1.44,2.53-2.18,4.22-2.18c1.79,0.18,3.34,0.95,4.61,2.32c1.93,2.07,2.92,4.85,2.92,8.33
		c0,0.7-0.04,1.44-0.14,2.14c2.78-0.77,4.82-1.16,6.08-1.23c0.39,0,0.88,0.32,1.55,0.88c0.25,0.25,0.39,0.49,0.39,0.77
		c0,0.14-0.11,0.21-0.35,0.28c-1.51,0.18-3.06,0.49-4.71,0.95c-1.16,0.35-2.32,0.63-3.48,0.88c-0.18,0.84-0.42,1.72-0.74,2.6
		c-1.41,4.39-3.16,6.79-5.27,7.24H205.78z M204.79,61.69c2.32-1.09,3.87-3.16,4.68-6.19c-3.2,0-6.08-1.51-8.68-4.54
		c-0.32,1.05-0.46,2.11-0.46,3.16c0,1.65,0.35,3.38,1.05,5.1s1.62,2.57,2.67,2.57L204.79,61.69z M210.38,50.02
		c0-1.16-0.14-2.39-0.42-3.69c-0.63-2.95-1.76-4.43-3.45-4.43l-0.53,0.04c-2.07,0.63-3.13,2.32-3.13,4.99
		c0,2.36,0.95,4.04,2.85,5.03c1.34,0.67,2.81,1.02,4.39,1.02C210.28,51.92,210.38,50.94,210.38,50.02z"/>
	<path d="M220.47,66.3c-1.23-1.27-1.86-2.81-1.97-4.61s-0.14-3.66-0.14-5.52c0-3.09,0.18-6.19,0.53-9.28
		c0.39-6.22,2.39-12.2,5.98-17.93c2.39-3.83,4.89-5.77,7.49-5.77c0.67,0,1.37,0.11,2.11,0.35c1.44,0.56,2.14,1.44,2.14,2.6
		c0,1.23-0.39,2.46-1.09,3.76c-1.76,3.2-4.25,6.36-7.49,9.42c-0.04,0.11-0.14,0.21-0.25,0.25c-1.55,1.51-2.95,2.43-4.18,2.71
		c-0.6,3.48-0.88,6.96-0.88,10.44c2.78-6.93,6.19-10.44,10.27-10.55c0.88,0,1.69,0.25,2.46,0.7c1.09,0.67,1.62,1.86,1.62,3.55
		c0,1.41-0.39,2.71-1.2,3.94c-2.43,4.01-5.73,6.26-9.84,6.79c1.48,1.97,3.06,2.95,4.78,2.95c2.46,0,5.13-1.2,8.02-3.55
		c2.11-1.65,3.2-3.2,3.3-4.71c0-0.18,0.11-0.25,0.28-0.25s0.35,0.07,0.56,0.18c0.18,0.11,0.39,0.25,0.56,0.42s0.25,0.35,0.25,0.53
		c-0.04,1.02-0.46,2-1.2,2.92c-1.23,1.44-2.29,2.43-3.23,2.99c-2.64,2.64-5.06,3.94-7.35,3.94c-2.95,0-5.66-1.62-8.16-4.89
		c-0.28,0-0.6-0.07-0.95-0.18c-0.07,0.18-0.14,0.42-0.18,0.67s-0.14,0.53-0.25,0.81c0,2.36,0.14,4.36,0.42,5.94
		c0.07,0.07,0.14,0.46,0.21,1.16c0,0.28-0.11,0.53-0.35,0.7c-0.25,0.21-0.49,0.32-0.77,0.32C221.39,67.11,220.89,66.83,220.47,66.3z
		 M226.8,38.1c4.15-3.87,6.82-7.63,8.02-11.25l0.11-0.07c0.11-0.53,0.18-0.91,0.18-1.12c0-0.25-0.07-0.46-0.18-0.63l-0.63-0.18
		c-1.65,0-3.2,1.12-4.64,3.38c-2.39,3.69-4.25,7.77-5.62,12.23C225.08,39.76,225.99,38.98,226.8,38.1z M228.63,51.67
		c1.72-1.62,3.34-3.66,4.89-6.08c0.42-0.6,0.63-1.05,0.63-1.44c0-0.53-0.32-0.77-0.88-0.77c-0.32,0-0.67,0.07-1.09,0.18
		c-1.93,0.56-3.66,2.04-5.13,4.39c-1.51,2.39-2.43,4.22-2.74,5.55l-0.11,0.18C225.89,53.4,227.36,52.73,228.63,51.67z"/>
</g>
<text transform="matrix(0.896 -0.444 0.444 0.896 83.9405 -53.6)" style="font-family:'DeliCakeRegular'; font-size:72px;">Book</text>
</svg>
