<?xml version="1.0" encoding="utf-8"?>
<!-- Generator: Adobe Illustrator 27.0.1, SVG Export Plug-In . SVG Version: 6.00 Build 0)  -->
<svg version="1.1" id="Слой_1" xmlns="http://www.w3.org/2000/svg" xmlns:xlink="http://www.w3.org/1999/xlink" x="0px" y="0px"
	 viewBox="0 0 88.4 88.4" style="enable-background:new 0 0 88.4 88.4;" xml:space="preserve">
<style type="text/css">
	.st0{fill:#C40606;stroke:#000000;stroke-width:3;stroke-miterlimit:10;}
	.st1{fill:#E26007;}
</style>
<path d="M17.8-159.9c0-1.9,0-3.3,0-4.4c0-1,0-1.8,0.1-2.3s0.2-0.9,0.3-1c0.1-0.2,0.3-0.4,0.6-0.5c0.3-0.3,0.7-0.5,1.2-0.5
	c0.5-0.1,1.2-0.1,2.2-0.1c0.8,0,1.4,0,1.8,0c0.4,0,0.7,0.1,0.9,0.2c0.2,0.1,0.4,0.2,0.6,0.4c0.7,0.6,1.2,1.3,1.4,2.2
	c0.3,0.9,0.4,2.5,0.4,4.8c0,1.3,0,3-0.1,5c0,3.2-0.1,5.8-0.3,7.6c0,0.6-0.1,1-0.1,1.2c-0.1,0.2-0.1,0.3-0.1,0.4
	c0,0.1,0.1,0.2,0.4,0.2c0.3,0,0.8,0,1.5,0c0.9,0,2.3-0.1,4.3-0.4s3.9-0.6,5.5-0.9c0.4-0.1,0.8-0.2,1-0.4c0.2-0.2,0.4-0.6,0.5-1.1
	c0.1-0.6,0.2-1.5,0.3-2.9c0.1-1.3,0.2-3.2,0.2-5.5c0-2.4,0-4.3,0-5.6s0-2.3,0.1-2.9s0.2-1,0.3-1.2c0.1-0.2,0.3-0.4,0.6-0.5
	c0.9-0.5,1.9-0.8,3.1-0.8c1,0,1.9,0.2,2.7,0.5c0.8,0.3,1.3,0.7,1.7,1.2c0.3,0.5,0.5,1.4,0.6,2.6s0.1,3,0.1,5.4
	c0,2.5-0.1,5.9-0.2,10.1s-0.3,8.3-0.5,12.1c-0.2,3.8-0.4,6.6-0.7,8.2c-0.2,2.3-0.4,4.2-0.8,5.9c-0.3,1.7-0.6,2.8-1,3.3
	c-0.2,0.2-0.5,0.4-0.9,0.7c-0.4,0.3-0.8,0.4-1.2,0.4c-0.5,0.2-1,0.3-1.5,0.3c-1,0-1.8-0.6-2.5-1.7c-0.1-0.2-0.3-0.5-0.4-0.8
	c-0.1-0.3-0.2-0.8-0.2-1.5c0-0.7-0.1-1.7-0.1-3.1c0-1.3,0-3.2,0-5.6c0-2.2,0-3.9,0-5.2s0-2.3,0-3c0-0.7-0.1-1.1-0.1-1.4
	c0-0.2-0.1-0.4-0.2-0.4c-0.1,0-0.2,0-0.3,0.1c-1,0.1-2.3,0.3-3.7,0.5c-1.5,0.2-2.9,0.2-4.2,0.2c-0.7,0-1.4,0-1.9-0.1
	c-0.9,0-1.5,0.1-1.9,0.2c-0.4,0.1-0.7,0.5-0.8,1.1s-0.3,1.7-0.4,3.1c0,0.1,0,0.2,0,0.4c-0.4,5.9-1,10.4-1.7,13.6
	c-0.1,0.8-0.3,1.4-0.6,1.8c-0.3,0.4-0.7,0.7-1.4,1c-0.7,0.3-1.3,0.4-1.9,0.4c-0.9,0-1.8-0.5-2.6-1.4c-0.4-0.4-0.8-1.1-0.9-2.1
	c-0.2-1-0.3-2.8-0.3-5.3c0-2.6,0.1-6.4,0.2-11.4c0.2-3.9,0.4-7.9,0.5-11.9C17.8-154.8,17.8-157.8,17.8-159.9z"/>
<path d="M120.7-168.5c0.1-0.1,0.2-0.1,0.2-0.1c0.7-0.2,1.2-0.4,1.7-0.4h2.4c0.8,0,1.4,0.1,1.8,0.2s0.8,0.3,1.3,0.5
	c0.6,0.3,1,0.7,1.3,1s0.4,0.8,0.4,1.4c0,0.5-0.1,0.8-0.2,1c-0.1,0.2-0.4,0.4-0.7,0.6c-0.1,0.1-0.1,0.1-0.2,0.2s-0.2,0.2-0.3,0.2
	c-0.1,0.1-0.3,0.2-0.4,0.3c-0.1,0.1-0.2,0.2-0.2,0.2c-0.4,0.1-1.4,0.4-2.8,0.7c-1.4,0.3-2.9,0.6-4.6,0.9c-0.1,0-0.1,0-0.1,0.1
	c-0.4,0.1-0.7,0.3-0.9,0.4s-0.2,0.3-0.2,0.5c0,0.1,0.1,0.4,0.1,0.7c0,0.1,0,0.1,0,0.2c0,0.6-0.1,2.1-0.3,4.3
	c-0.1,1.1-0.1,2.3-0.2,3.5c-0.3,9.5-0.7,16.6-1,21.1s-0.9,8.1-1.6,10.6c-0.1,0.5-0.5,1-1.2,1.4c-0.6,0.5-1.3,0.7-2.1,0.7h-0.3
	c-0.6,0-1.2-0.2-1.8-0.5c-0.6-0.4-1-0.9-1.3-1.6c-0.1-0.2-0.2-1.1-0.3-2.7c-0.1-1.6-0.1-3.4-0.1-5.7c0-4.4,0.1-8.7,0.4-13
	c0-1.1,0-2.7,0.1-4.7c0.1-2.5,0.1-4.9,0.1-7.1v-1.8c0-1.8,0-3-0.1-3.8c-0.1-0.7-0.2-1.2-0.4-1.3s-0.5-0.2-0.9-0.2
	c-0.5,0-1.3-0.1-2.3-0.1c-1-0.1-2-0.2-2.8-0.3c-0.9-0.1-1.5-0.2-1.8-0.3c-1.2-0.4-2.1-1-2.6-1.7c-0.2-0.4-0.3-0.7-0.3-1.1
	c0-1,1-1.8,2.9-2.4c0.3-0.1,0.8-0.1,1.7-0.1c0.5,0,1.1,0,1.8,0.1c0.6,0,1.2,0,1.7,0c1.1,0,2.2-0.1,3.3-0.2s1.9-0.2,2.4-0.3
	c1.8-0.2,3.5-0.5,5-0.8C118.7-167.9,119.9-168.2,120.7-168.5z"/>
<g>
	<path id="XMLID_00000016788513389627693710000004446438806348570519_" class="st0" d="M91.6-163.9c-0.6,0-1.2,2.8-2.5,2.9
		c-0.1,0-0.6,0-0.9-0.3c-0.3-0.3-0.3-0.6-0.3-0.7c-0.2-1.4-4.7-12.1-5.7-11.8c-0.5,0.1,0.5,2.3-0.7,4.5c-0.9,1.5-2.5,2.6-4.2,2.8
		c-0.6,0.1-2.2,0.3-3.2-0.6c-0.7-0.7-0.9-1.9-0.5-4.3c1-5.4,3.4-8.3,3-8.7c-0.4-0.4-4,1.9-6,5.9c-1.5,3-0.8,4.4-2.5,9.4
		c-0.5,1.6-2,6-3,5.8c-1.4-0.2-0.6-9.1-1.4-9.1c-1.1-0.1-8.3,16.1-3.9,26.1c0.9,2.2,2.9,3.7,4,5.7c3.5,6.1,7,12,11.4,17.5
		c0.3,0.4,0.7,0.4,1,0c2.5-3.1,4.9-6.3,7.1-9.6c1.7-2.6,2.9-5.4,4.2-8.1c1.2-2.5,2.9-4.8,3.8-7.4C94.7-153.8,92.7-163.8,91.6-163.9z
		 M75.8-131.9c-2.2,0-4.2-0.9-5.6-2.4c-1.4-1.4-2.2-3.4-2.2-5.5c0-4.4,3.6-7.9,7.9-7.9c4.3,0,7.8,3.6,7.8,7.9c0,2-0.7,3.8-1.9,5.1
		C80.4-132.9,78.2-131.9,75.8-131.9z"/>
	<g>
		<path class="st1" d="M87.9-155.4c-0.4-0.1-0.7,1.2-2.4,2.4c-0.7,0.5-2,1.5-2.7,1.1c-1.7-0.9,1.7-9.1,0.3-9.8c-1-0.5-3,3.6-5.9,3.3
			c-1.5-0.2-2.7-1.6-3.3-2.3c-1.8-2.3-1.7-4.6-2.2-4.6c-1.1,0-1.1,12.5-3.7,12.9c-1.6,0.3-3.2-4.2-4.2-3.8c-1,0.4,0.1,5.4,0.1,5.9
			c0.8,3.5,2,6.2,2.9,8c1.4-3.9,5.1-6.6,9.1-6.5c3.7,0.1,7.1,2.3,8.6,5.8c0.7-0.9,1.5-2.2,2.2-3.9C88.6-151,88.6-155.2,87.9-155.4z"
			/>
	</g>
</g>
<text transform="matrix(0.9228 -0.3853 0.3853 0.9228 245.3404 -153.9104)" style="font-family:'BrittanyGolden'; font-size:72px;">Book</text>
<path d="M-22.1-70.5c0-1.9,0-3.3,0-4.4c0-1,0-1.8,0.1-2.3s0.2-0.8,0.3-1c0.1-0.2,0.3-0.4,0.6-0.5c0.3-0.3,0.7-0.5,1.2-0.5
	c0.5-0.1,1.2-0.1,2.2-0.1c0.8,0,1.4,0,1.8,0c0.4,0,0.7,0.1,0.9,0.2c0.2,0.1,0.4,0.2,0.6,0.4c0.7,0.6,1.1,1.3,1.4,2.2
	c0.3,0.9,0.4,2.5,0.4,4.8c0,1.3,0,3-0.1,5c0,3.2-0.1,5.8-0.3,7.6c0,0.6-0.1,1-0.1,1.2c-0.1,0.2-0.1,0.3-0.1,0.4
	c0,0.1,0.1,0.2,0.4,0.2c0.3,0,0.8,0,1.5,0c0.9,0,2.3-0.1,4.3-0.4s3.9-0.6,5.5-0.9c0.4,0,0.8-0.2,1-0.4c0.2-0.2,0.4-0.6,0.5-1.2
	c0.1-0.6,0.2-1.5,0.3-2.9s0.2-3.2,0.2-5.5c0-2.4,0-4.3,0-5.6s0-2.3,0.1-2.9s0.2-1,0.3-1.2c0.1-0.2,0.3-0.4,0.6-0.5
	c0.9-0.5,1.9-0.8,3.1-0.8c1,0,1.9,0.2,2.7,0.5c0.8,0.3,1.3,0.7,1.7,1.2c0.3,0.5,0.5,1.4,0.6,2.6s0.1,3,0.1,5.4
	c0,2.5-0.1,5.9-0.2,10.1s-0.3,8.3-0.5,12.1c-0.2,3.8-0.4,6.6-0.7,8.2c-0.2,2.3-0.4,4.2-0.8,5.9c-0.3,1.7-0.6,2.8-1,3.3
	c-0.2,0.2-0.5,0.4-0.9,0.7c-0.4,0.3-0.8,0.4-1.2,0.4c-0.5,0.2-1,0.3-1.5,0.3c-1,0-1.8-0.6-2.5-1.7c-0.1-0.2-0.3-0.5-0.4-0.8
	c-0.1-0.3-0.2-0.8-0.2-1.5c0-0.7-0.1-1.7-0.1-3.1c0-1.3,0-3.2,0-5.6c0-2.2,0-3.9,0-5.2s0-2.3,0-3c0-0.7-0.1-1.1-0.1-1.4
	c0-0.2-0.1-0.4-0.2-0.4c-0.1,0-0.2,0-0.3,0.1c-1,0.1-2.3,0.3-3.7,0.5c-1.5,0.2-2.9,0.2-4.2,0.2c-0.7,0-1.4,0-1.9-0.1
	c-0.9,0-1.5,0.1-1.9,0.2c-0.4,0.1-0.6,0.5-0.8,1.2c-0.1,0.6-0.3,1.7-0.4,3.1c0,0.1,0,0.2,0,0.4c-0.4,5.9-1,10.4-1.7,13.6
	c-0.1,0.8-0.4,1.4-0.6,1.8c-0.3,0.4-0.7,0.7-1.4,1s-1.3,0.4-1.9,0.4c-0.9,0-1.8-0.5-2.6-1.4c-0.4-0.4-0.8-1.1-0.9-2.1
	c-0.2-1-0.3-2.8-0.3-5.3c0-2.6,0.1-6.4,0.2-11.4c0.2-3.9,0.4-7.9,0.5-11.9C-22.2-65.4-22.1-68.5-22.1-70.5z"/>
<path d="M123.6-59.9c0.1,0,0.2-0.1,0.2-0.1c0.7-0.2,1.2-0.4,1.7-0.4h2.4c0.8,0,1.4,0.1,1.8,0.2c0.4,0.1,0.8,0.3,1.3,0.5
	c0.6,0.3,1,0.7,1.3,1c0.3,0.3,0.4,0.8,0.4,1.4c0,0.5-0.1,0.8-0.2,1c-0.1,0.2-0.4,0.4-0.7,0.7c-0.1,0-0.1,0.1-0.2,0.2
	c-0.1,0.1-0.2,0.2-0.3,0.2c-0.1,0.1-0.3,0.2-0.4,0.3c-0.1,0.1-0.2,0.2-0.2,0.2c-0.4,0.1-1.4,0.4-2.8,0.7c-1.4,0.3-2.9,0.6-4.6,0.9
	c-0.1,0-0.1,0-0.1,0.1c-0.4,0.1-0.7,0.3-0.9,0.4c-0.2,0.1-0.2,0.3-0.2,0.5c0,0.1,0.1,0.4,0.1,0.7c0,0,0,0.1,0,0.2
	c0,0.6-0.1,2.1-0.3,4.3c-0.1,1.1-0.1,2.3-0.2,3.5c-0.3,9.5-0.7,16.5-1,21.1s-0.9,8.1-1.6,10.6c-0.1,0.5-0.5,1-1.2,1.4
	s-1.3,0.7-2.1,0.7h-0.3c-0.6,0-1.2-0.2-1.8-0.5c-0.6-0.4-1-0.9-1.3-1.6c-0.1-0.2-0.2-1.1-0.3-2.7s-0.1-3.4-0.1-5.7
	c0-4.4,0.1-8.7,0.4-13c0-1.2,0-2.7,0.1-4.7c0.1-2.5,0.1-4.9,0.1-7.1v-1.8c0-1.8,0-3-0.1-3.8c-0.1-0.7-0.2-1.2-0.4-1.3
	s-0.5-0.2-0.9-0.2c-0.5,0-1.3,0-2.3-0.1c-1-0.1-2-0.2-2.8-0.3c-0.9-0.1-1.5-0.2-1.8-0.3c-1.2-0.4-2.1-1-2.6-1.7
	c-0.2-0.4-0.3-0.7-0.3-1.1c0-1,1-1.8,2.9-2.4c0.3-0.1,0.8-0.1,1.7-0.1c0.5,0,1.1,0,1.8,0.1c0.6,0,1.2,0,1.7,0c1.1,0,2.2-0.1,3.3-0.2
	c1.1-0.1,1.9-0.2,2.4-0.3c1.8-0.2,3.5-0.5,5-0.8C121.7-59.4,122.8-59.7,123.6-59.9z"/>
<g>
	<path id="XMLID_00000157304726685935296110000005534065572318879649_" class="st0" d="M64.3,25.4c-0.8,0-1.5,3.6-3.1,3.7
		c-0.1,0-0.7,0.1-1.2-0.3c-0.4-0.3-0.4-0.8-0.4-0.9c-0.2-1.8-6-15.5-7.3-15.1c-0.6,0.2,0.7,2.9-0.9,5.8c-1.1,2-3.2,3.3-5.4,3.6
		c-0.8,0.1-2.8,0.4-4-0.8c-0.9-0.9-1.1-2.4-0.6-5.5C42.6,9,45.8,5.3,45.2,4.8c-0.6-0.4-5.1,2.4-7.7,7.6c-1.9,3.8-1,5.6-3.1,12
		c-0.7,2.1-2.5,7.6-3.8,7.5c-1.8-0.3-0.8-11.6-1.8-11.7c-1.3-0.1-10.6,20.6-5,33.4c1.2,2.8,3.7,4.7,5.2,7.3
		c4.5,7.8,8.9,15.4,14.6,22.4c0.4,0.5,0.9,0.5,1.3,0c3.2-3.9,6.3-8,9-12.3c2.1-3.3,3.7-6.8,5.4-10.3c1.6-3.1,3.7-6.1,4.8-9.4
		C68.2,38.4,65.7,25.5,64.3,25.4z M44.2,66.3c-2.8,0-5.4-1.2-7.2-3.1c-1.8-1.8-2.9-4.3-2.9-7c0-5.6,4.6-10.1,10.1-10
		c5.5,0,10,4.6,10,10.1c0,2.5-0.9,4.8-2.5,6.5C50,65,47.2,66.4,44.2,66.3z"/>
	<g>
		<path class="st1" d="M59.6,36.2c-0.5-0.1-0.9,1.6-3.1,3.1c-0.9,0.6-2.6,1.9-3.5,1.4c-2.1-1.2,2.1-11.7,0.3-12.6
			c-1.3-0.6-3.8,4.6-7.5,4.2c-2-0.2-3.4-2-4.2-3c-2.4-2.9-2.2-5.9-2.8-5.9c-1.3,0-1.4,16-4.7,16.6c-2,0.3-4.1-5.3-5.4-4.9
			c-1.3,0.5,0.1,7,0.2,7.5c1,4.5,2.5,7.9,3.7,10.2c1.8-5,6.5-8.4,11.7-8.3c4.7,0.1,9.1,3,11,7.4c0.8-1.1,1.9-2.8,2.9-5
			C60.4,41.9,60.5,36.5,59.6,36.2z"/>
	</g>
</g>
<g>
	<path d="M168.5-32.1c-0.8-1-1.3-2.2-1.3-3.4c0-0.4,0.1-0.9,0.2-1.3c0.9-3.6,2.7-6.5,5.5-8.7c0.1-0.1,0.3-0.1,0.5-0.1
		c0.2,0,0.5,0.1,0.8,0.2c0.4,0.2,0.7,0.4,1,0.7c0.3,0.3,0.5,0.6,0.5,0.8c0,0.7-0.7,2.1-2,4.2c-0.5,0.9-1,1.9-1.6,2.9
		c-0.5,1-0.8,2-0.8,2.9c0,0.5,0,0.8,0.1,0.8c0,0.5,0.1,0.8,0.5,0.9l0.1,0.1c0.9,0.3,1.9,0.5,2.9,0.5c2,0,4.2-0.6,6.9-1.7
		c6.1-2.5,11.7-6,16.7-10.3c1.9-1.6,3.7-3.3,5.4-5.3c2.2-2.6,3.3-5.3,3.3-8.2c0-0.5-0.2-1-0.7-1.6c-0.7-0.2-1.6-0.3-2.5-0.3
		l-1.3,0.1c-5.4,0.5-10.6,2.4-15.7,5.6v0.1h-0.1c-0.5,2.7-0.7,5.5-0.7,8.2c0,1.4,0.1,2.7,0.2,4.2l0,0.2c0,0.5-0.3,0.7-0.9,0.7
		c-0.3,0-0.7-0.1-1.1-0.2c-1.4-0.5-2.1-1.3-2.1-2.4c-0.1-1.5-0.2-3-0.2-4.5c0-6.9,1.6-14.9,5-24l1.9-5.4c0.5-2,1.2-3,2.2-3l0.8,0.1
		c1.2,0.5,1.8,1.3,1.8,2.4c0,1.3-0.5,3-1.6,5.1c-1.2,3.4-2.2,6.8-3.3,10.2l-0.7,2.3c9.3-5.5,15.9-11.3,19.8-17.5c2-3,3-5.8,3-8.7
		c0-0.7-0.1-1.4-0.5-1.9c0-0.1,0-0.1-0.1-0.2c-0.1-0.1-0.1-0.1-0.1-0.2l0-0.1l-0.4-0.2c-0.9-0.5-2.5-0.8-4.8-0.8
		c-7.1,0.2-14.1,2.1-21,5.8c-1.8,1.1-3.8,2.7-6,4.9c-1.9,1.9-2.9,3.3-2.9,4.3c0,0.5,0.2,0.8,0.8,1.1c0.5,0.3,0.8,0.7,0.8,1.2
		c0,0.1-0.1,0.2-0.3,0.2l-0.4-0.1c-2.1-0.7-3.2-1.8-3.2-3.2c0-0.1,0-0.5,0.1-1.3c0-0.8,0.7-2,1.9-3.5c3.7-4.8,8.6-8.2,14.6-10.2
		c4.5-1.7,9.1-2.5,13.9-2.5c2.7,0,5.1,0.6,7.2,1.7c3.1,1.6,4.6,4.2,4.6,7.7c0,1.9-0.6,4.2-1.9,6.6c-2.5,4.8-6.7,9.5-12.7,14l1,0
		c2.2,0,4.4,0.5,6.6,1.6s3.2,3.1,3.3,6.1c-0.3,4.2-2.7,8.2-7.3,12.3c-4.8,4.5-10.2,8.2-16.1,11c-4.1,2.1-7.7,3.1-10.9,3.1
		C173.5-28.3,170.6-29.6,168.5-32.1z"/>
	<path d="M224.5-45.5c-1.9,0-3.7-0.8-5.2-2.4c-2.6-2.7-3.9-5.7-3.9-9c0-2.5,0.8-4.8,2.5-6.9c0-1.7,0.6-3.3,1.8-4.7
		c1.1-1.4,2.5-2.2,4.2-2.2c1.8,0.2,3.3,0.9,4.6,2.3c1.9,2.1,2.9,4.8,2.9,8.3c0,0.7,0,1.4-0.1,2.1c2.8-0.8,4.8-1.2,6.1-1.2
		c0.4,0,0.9,0.3,1.6,0.9c0.2,0.2,0.4,0.5,0.4,0.8c0,0.1-0.1,0.2-0.4,0.3c-1.5,0.2-3.1,0.5-4.7,1c-1.2,0.3-2.3,0.6-3.5,0.9
		c-0.2,0.8-0.4,1.7-0.7,2.6c-1.4,4.4-3.2,6.8-5.3,7.2L224.5-45.5L224.5-45.5z M223.5-48.9c2.3-1.1,3.9-3.2,4.7-6.2
		c-3.2,0-6.1-1.5-8.7-4.5c-0.3,1-0.5,2.1-0.5,3.2c0,1.7,0.4,3.4,1.1,5.1s1.6,2.6,2.7,2.6L223.5-48.9z M229.1-60.6
		c0-1.2-0.1-2.4-0.4-3.7c-0.6-3-1.8-4.4-3.4-4.4l-0.5,0c-2.1,0.6-3.1,2.3-3.1,5c0,2.4,0.9,4,2.9,5c1.3,0.7,2.8,1,4.4,1
		C229-58.7,229.1-59.7,229.1-60.6z"/>
	<path d="M246.2-45.5c-1.9,0-3.7-0.8-5.2-2.4c-2.6-2.7-3.9-5.7-3.9-9c0-2.5,0.8-4.8,2.5-6.9c0-1.7,0.6-3.3,1.8-4.7
		c1.1-1.4,2.5-2.2,4.2-2.2c1.8,0.2,3.3,0.9,4.6,2.3c1.9,2.1,2.9,4.8,2.9,8.3c0,0.7,0,1.4-0.1,2.1c2.8-0.8,4.8-1.2,6.1-1.2
		c0.4,0,0.9,0.3,1.6,0.9c0.2,0.2,0.4,0.5,0.4,0.8c0,0.1-0.1,0.2-0.4,0.3c-1.5,0.2-3.1,0.5-4.7,1c-1.2,0.3-2.3,0.6-3.5,0.9
		c-0.2,0.8-0.4,1.7-0.7,2.6c-1.4,4.4-3.2,6.8-5.3,7.2L246.2-45.5L246.2-45.5z M245.2-48.9c2.3-1.1,3.9-3.2,4.7-6.2
		c-3.2,0-6.1-1.5-8.7-4.5c-0.3,1-0.5,2.1-0.5,3.2c0,1.7,0.4,3.4,1.1,5.1s1.6,2.6,2.7,2.6L245.2-48.9z M250.8-60.6
		c0-1.2-0.1-2.4-0.4-3.7c-0.6-3-1.8-4.4-3.4-4.4l-0.5,0c-2.1,0.6-3.1,2.3-3.1,5c0,2.4,0.9,4,2.9,5c1.3,0.7,2.8,1,4.4,1
		C250.7-58.7,250.8-59.7,250.8-60.6z"/>
	<path d="M260.9-44.3c-1.2-1.3-1.9-2.8-2-4.6c-0.1-1.8-0.1-3.7-0.1-5.5c0-3.1,0.2-6.2,0.5-9.3c0.4-6.2,2.4-12.2,6-17.9
		c2.4-3.8,4.9-5.8,7.5-5.8c0.7,0,1.4,0.1,2.1,0.3c1.4,0.6,2.1,1.4,2.1,2.6c0,1.2-0.4,2.5-1.1,3.8c-1.8,3.2-4.2,6.4-7.5,9.4
		c0,0.1-0.1,0.2-0.2,0.2c-1.5,1.5-2.9,2.4-4.2,2.7c-0.6,3.5-0.9,7-0.9,10.4c2.8-6.9,6.2-10.4,10.3-10.5c0.9,0,1.7,0.2,2.5,0.7
		c1.1,0.7,1.6,1.9,1.6,3.5c0,1.4-0.4,2.7-1.2,3.9c-2.4,4-5.7,6.3-9.8,6.8c1.5,2,3.1,3,4.8,3c2.5,0,5.1-1.2,8-3.5
		c2.1-1.7,3.2-3.2,3.3-4.7c0-0.2,0.1-0.2,0.3-0.2c0.2,0,0.4,0.1,0.6,0.2c0.2,0.1,0.4,0.2,0.6,0.4c0.2,0.2,0.2,0.3,0.2,0.5
		c0,1-0.5,2-1.2,2.9c-1.2,1.4-2.3,2.4-3.2,3c-2.6,2.6-5.1,3.9-7.4,3.9c-3,0-5.7-1.6-8.2-4.9c-0.3,0-0.6-0.1-1-0.2
		c-0.1,0.2-0.1,0.4-0.2,0.7c0,0.2-0.1,0.5-0.2,0.8c0,2.4,0.1,4.4,0.4,5.9c0.1,0.1,0.1,0.5,0.2,1.2c0,0.3-0.1,0.5-0.4,0.7
		c-0.2,0.2-0.5,0.3-0.8,0.3C261.8-43.5,261.3-43.8,260.9-44.3z M267.2-72.5c4.1-3.9,6.8-7.6,8-11.2l0.1-0.1c0.1-0.5,0.2-0.9,0.2-1.1
		c0-0.2-0.1-0.5-0.2-0.6l-0.6-0.2c-1.6,0-3.2,1.1-4.6,3.4c-2.4,3.7-4.2,7.8-5.6,12.2C265.5-70.9,266.4-71.7,267.2-72.5z M269.1-59
		c1.7-1.6,3.3-3.7,4.9-6.1c0.4-0.6,0.6-1.1,0.6-1.4c0-0.5-0.3-0.8-0.9-0.8c-0.3,0-0.7,0.1-1.1,0.2c-1.9,0.6-3.7,2-5.1,4.4
		c-1.5,2.4-2.4,4.2-2.7,5.5l-0.1,0.2C266.3-57.2,267.8-57.9,269.1-59z"/>
</g>
<text transform="matrix(0.896 -0.444 0.444 0.896 63.3725 -53.5998)" style="font-family:'DeliCakeRegular'; font-size:72px;">Book</text>
</svg>
